<?xml version="1.0" encoding="UTF-8" standalone="no"?>
<!DOCTYPE svg PUBLIC "-//W3C//DTD SVG 1.1//EN" "http://www.w3.org/Graphics/SVG/1.1/DTD/svg11.dtd">
<svg version="1.1" xmlns="http://www.w3.org/2000/svg" xmlns:xlink="http://www.w3.org/1999/xlink" preserveAspectRatio="xMidYMid meet" viewBox="0 0 640 640" width="640" height="640"><defs><path d="M320 227.94C183.41 227.94 64.09 267.74 3.87 326.5C-1.29 331.6 -1.29 337.62 3.87 342.72C64.12 401.5 183.41 441.28 320 441.28C456.59 441.28 575.91 401.48 636.13 342.72C641.29 337.62 641.29 331.6 636.13 326.5C575.88 267.72 456.59 227.94 320 227.94ZM160 334.61C160 290.43 231.64 254.61 320 254.61C408.37 254.61 480 290.43 480 334.61C480.04 378.77 408.48 414.59 320.16 414.61C320.1 414.61 320.05 414.61 320 414.61C231.64 414.61 160 378.79 160 334.61ZM291.88 283.38C309.28 295.21 304.22 311.85 280.57 320.55C261.82 327.45 236.29 327.45 217.55 320.55C202.15 348.91 235.65 378.14 292.37 385.84C349.1 393.54 407.56 376.79 422.96 348.43C438.35 320.06 404.85 290.83 348.13 283.13C338.96 281.89 329.5 281.27 320 281.28C310.48 281.34 301.02 282.05 291.88 283.38Z" id="b2AQbfp09D"></path></defs><g><g><g><use xlink:href="#b2AQbfp09D" opacity="1" fill="#000000" fill-opacity="1"></use><g><use xlink:href="#b2AQbfp09D" opacity="1" fill-opacity="0" stroke="#000000" stroke-width="1" stroke-opacity="0"></use></g></g></g></g></svg>